PathFileType	4	(X/Y/Z)	E:/Microgravity/Neeraj_13_07_24_t02 _without_weight_pp.trc													
DataRate	CameraRate	NumFrames	NumMarkers	Units	OrigDataRate	OrigDataStartFrame	OrigNumFrames									
120	120	72	5	m	120	2647	7058									
Frame#	Time	RHAND			r_radius_styloid			RWRB			r_humerus_epicondyle			r_acromion		
		X1	Y1	Z1	X2	Y2	Z2	X3	Y3	Z3	X4	Y4	Z4	X5	Y5	Z5
																
2647	22.05	0.20102	-0.01036	0.19756	0.14317	-0.08103	0.26108	0.19224	-0.11885	0.18318	-0.00957	-0.23643	0.27926	-0.01753	0.08143	0.19283
2648	22.058	0.20112	-0.01053	0.19753	0.14326	-0.08106	0.26114	0.19232	-0.11888	0.18325	-0.00951	-0.23643	0.2793	-0.01746	0.08142	0.19286
2649	22.067	0.20122	-0.01065	0.19748	0.14335	-0.08109	0.26121	0.1924	-0.11892	0.18333	-0.00945	-0.23644	0.27934	-0.01738	0.08141	0.1929
2650	22.075	0.20132	-0.01071	0.19739	0.14345	-0.08113	0.26128	0.19248	-0.11896	0.1834	-0.00939	-0.23645	0.27938	-0.01731	0.08141	0.19293
2651	22.083	0.20142	-0.01071	0.1973	0.14354	-0.08116	0.26135	0.19257	-0.11901	0.18346	-0.00933	-0.23646	0.27942	-0.01723	0.0814	0.19297
2652	22.092	0.20151	-0.01065	0.1972	0.14363	-0.0812	0.26142	0.19265	-0.11906	0.18353	-0.00927	-0.23647	0.27947	-0.01715	0.08139	0.193
2653	22.1	0.2016	-0.01053	0.19711	0.14372	-0.08123	0.26148	0.19273	-0.1191	0.18359	-0.00922	-0.23648	0.27951	-0.01707	0.08139	0.19304
2654	22.108	0.20169	-0.01039	0.19704	0.14381	-0.08127	0.26154	0.19281	-0.11915	0.18364	-0.00917	-0.23649	0.27955	-0.01698	0.08138	0.19307
2655	22.117	0.20177	-0.01026	0.19703	0.1439	-0.08131	0.2616	0.19289	-0.11919	0.1837	-0.00912	-0.2365	0.27959	-0.0169	0.08137	0.19311
2656	22.125	0.20185	-0.01019	0.19707	0.14399	-0.08134	0.26165	0.19297	-0.11923	0.18375	-0.00907	-0.23651	0.27964	-0.01681	0.08136	0.19314
2657	22.133	0.20193	-0.01019	0.1972	0.14407	-0.08138	0.2617	0.19305	-0.11928	0.18379	-0.00902	-0.23652	0.27968	-0.01672	0.08134	0.19318
2658	22.142	0.20201	-0.01023	0.19736	0.14415	-0.08141	0.26174	0.19312	-0.11932	0.18383	-0.00898	-0.23653	0.27973	-0.01663	0.08133	0.19322
2659	22.15	0.20208	-0.01028	0.19751	0.14423	-0.08144	0.26178	0.1932	-0.11936	0.18386	-0.00893	-0.23653	0.27978	-0.01653	0.08132	0.19327
2660	22.158	0.20215	-0.01032	0.19763	0.14431	-0.08147	0.26181	0.19327	-0.1194	0.18389	-0.00888	-0.23654	0.27982	-0.01643	0.08131	0.19331
2661	22.167	0.20222	-0.01035	0.19773	0.14439	-0.0815	0.26184	0.19334	-0.11944	0.18391	-0.00883	-0.23655	0.27987	-0.01633	0.0813	0.19336
2662	22.175	0.20229	-0.01037	0.19782	0.14447	-0.08153	0.26187	0.19342	-0.11947	0.18394	-0.00878	-0.23655	0.27991	-0.01623	0.0813	0.19341
2663	22.183	0.20236	-0.01039	0.19788	0.14454	-0.08155	0.2619	0.19349	-0.11949	0.18396	-0.00873	-0.23655	0.27996	-0.01613	0.08129	0.19346
2664	22.192	0.20243	-0.01041	0.19791	0.14461	-0.08157	0.26192	0.19356	-0.11951	0.18399	-0.00868	-0.23655	0.28001	-0.01603	0.08128	0.1935
2665	22.2	0.2025	-0.01043	0.19791	0.14468	-0.08159	0.26194	0.19364	-0.11953	0.18402	-0.00864	-0.23655	0.28006	-0.01594	0.08128	0.19354
2666	22.208	0.20256	-0.01046	0.19788	0.14475	-0.08161	0.26196	0.19371	-0.11954	0.18405	-0.00859	-0.23655	0.28011	-0.01584	0.08127	0.19358
2667	22.217	0.20263	-0.01049	0.19783	0.14482	-0.08162	0.26198	0.19378	-0.11956	0.18408	-0.00854	-0.23655	0.28016	-0.01575	0.08127	0.19362
2668	22.225	0.2027	-0.01053	0.19777	0.14488	-0.08163	0.262	0.19386	-0.11956	0.18411	-0.00849	-0.23655	0.28022	-0.01566	0.08127	0.19366
2669	22.233	0.20276	-0.01058	0.19771	0.14495	-0.08164	0.26202	0.19394	-0.11957	0.18415	-0.00844	-0.23655	0.28027	-0.01558	0.08127	0.1937
2670	22.242	0.20282	-0.01061	0.19767	0.14502	-0.08164	0.26204	0.19401	-0.11958	0.18418	-0.00838	-0.23655	0.28033	-0.01549	0.08127	0.19374
2671	22.25	0.20289	-0.01062	0.19768	0.14508	-0.08165	0.26207	0.19408	-0.1196	0.18421	-0.00832	-0.23654	0.28038	-0.01541	0.08126	0.19378
2672	22.258	0.20295	-0.01061	0.1977	0.14515	-0.08166	0.26209	0.19414	-0.11961	0.18424	-0.00826	-0.23654	0.28044	-0.01533	0.08126	0.19382
2673	22.267	0.20301	-0.0106	0.19772	0.14522	-0.08166	0.26212	0.1942	-0.11962	0.18427	-0.0082	-0.23654	0.2805	-0.01526	0.08126	0.19387
2674	22.275	0.20307	-0.01059	0.19773	0.14528	-0.08167	0.26215	0.19426	-0.11963	0.1843	-0.00814	-0.23654	0.28055	-0.01518	0.08126	0.19392
2675	22.283	0.20314	-0.01057	0.19775	0.14535	-0.08167	0.26219	0.19432	-0.11964	0.18434	-0.00807	-0.23653	0.28061	-0.01511	0.08125	0.19397
2676	22.292	0.20321	-0.01056	0.19777	0.14542	-0.08168	0.26223	0.19438	-0.11965	0.18438	-0.00801	-0.23653	0.28067	-0.01504	0.08125	0.19402
2677	22.3	0.20328	-0.01054	0.19779	0.14548	-0.08168	0.26227	0.19444	-0.11966	0.18442	-0.00794	-0.23653	0.28073	-0.01497	0.08125	0.19407
2678	22.308	0.20335	-0.01051	0.19782	0.14554	-0.08169	0.26232	0.1945	-0.11967	0.18446	-0.00788	-0.23653	0.28079	-0.01491	0.08125	0.19412
2679	22.317	0.20342	-0.01047	0.19785	0.14561	-0.08169	0.26237	0.19457	-0.11968	0.18451	-0.00781	-0.23652	0.28085	-0.01486	0.08125	0.19416
2680	22.325	0.2035	-0.01043	0.19787	0.14567	-0.0817	0.26243	0.19463	-0.11969	0.18457	-0.00774	-0.23652	0.28091	-0.01482	0.08125	0.19419
2681	22.333	0.20357	-0.0104	0.19789	0.14574	-0.0817	0.26249	0.19469	-0.1197	0.18462	-0.00768	-0.23652	0.28098	-0.01478	0.08124	0.19423
2682	22.342	0.20363	-0.01037	0.19791	0.1458	-0.0817	0.26255	0.19476	-0.11971	0.18468	-0.0076	-0.23652	0.28104	-0.01474	0.08124	0.19427
2683	22.35	0.2037	-0.01034	0.19793	0.14586	-0.08171	0.26262	0.19482	-0.11973	0.18474	-0.00753	-0.23652	0.28111	-0.0147	0.08123	0.19432
2684	22.358	0.20376	-0.01031	0.19795	0.14592	-0.08171	0.26268	0.19488	-0.11975	0.1848	-0.00746	-0.23652	0.28117	-0.01465	0.08122	0.19437
2685	22.367	0.20382	-0.01029	0.19797	0.14597	-0.08171	0.26275	0.19493	-0.11977	0.18486	-0.0074	-0.23653	0.28124	-0.01461	0.08121	0.19441
2686	22.375	0.20387	-0.01026	0.19799	0.14602	-0.08171	0.26281	0.19499	-0.11978	0.18492	-0.00734	-0.23653	0.2813	-0.01457	0.08119	0.19445
2687	22.383	0.20392	-0.01024	0.19801	0.14606	-0.08171	0.26287	0.19504	-0.11978	0.18498	-0.00729	-0.23653	0.28136	-0.01454	0.08118	0.1945
2688	22.392	0.20397	-0.01022	0.19804	0.1461	-0.08171	0.26292	0.19508	-0.11978	0.18504	-0.00724	-0.23654	0.28141	-0.0145	0.08117	0.19454
2689	22.4	0.20401	-0.0102	0.19806	0.14614	-0.08172	0.26296	0.19513	-0.11978	0.1851	-0.00719	-0.23654	0.28145	-0.01447	0.08115	0.19458
2690	22.408	0.20405	-0.01018	0.19808	0.14617	-0.08172	0.26299	0.19517	-0.11978	0.18515	-0.00715	-0.23655	0.2815	-0.01444	0.08114	0.19462
2691	22.417	0.20409	-0.01016	0.1981	0.1462	-0.08172	0.26303	0.19521	-0.11977	0.18521	-0.00711	-0.23655	0.28154	-0.01441	0.08113	0.19466
2692	22.425	0.20413	-0.01014	0.19812	0.14624	-0.08172	0.26308	0.19525	-0.11976	0.18526	-0.00708	-0.23656	0.28158	-0.01438	0.08113	0.19471
2693	22.433	0.20417	-0.01012	0.19815	0.14627	-0.08172	0.26313	0.19529	-0.11975	0.1853	-0.00704	-0.23656	0.28162	-0.01435	0.08112	0.19476
2694	22.442	0.2042	-0.01011	0.19818	0.14631	-0.08172	0.26318	0.19533	-0.11975	0.18535	-0.007	-0.23657	0.28167	-0.01432	0.08111	0.19481
2695	22.45	0.20424	-0.01009	0.1982	0.14635	-0.08171	0.26324	0.19536	-0.11974	0.1854	-0.00696	-0.23657	0.28173	-0.01429	0.08111	0.19486
2696	22.458	0.20428	-0.01008	0.19822	0.14638	-0.08171	0.2633	0.1954	-0.11974	0.18544	-0.00691	-0.23657	0.28178	-0.01426	0.0811	0.19491
2697	22.467	0.20432	-0.01007	0.19823	0.14642	-0.08171	0.26336	0.19543	-0.11974	0.18549	-0.00687	-0.23657	0.28183	-0.01423	0.0811	0.19496
2698	22.475	0.20437	-0.01006	0.19825	0.14647	-0.08171	0.26341	0.19546	-0.11975	0.18553	-0.00683	-0.23657	0.28189	-0.01421	0.0811	0.19501
2699	22.483	0.20443	-0.01005	0.19826	0.14651	-0.08172	0.26346	0.1955	-0.11975	0.18557	-0.0068	-0.23658	0.28194	-0.01418	0.08109	0.19506
2700	22.492	0.20448	-0.01005	0.19826	0.14655	-0.08172	0.26351	0.19553	-0.11976	0.18562	-0.00676	-0.23658	0.28199	-0.01415	0.08109	0.19511
2701	22.5	0.20454	-0.01004	0.19826	0.14659	-0.08173	0.26355	0.19557	-0.11977	0.18566	-0.00673	-0.23659	0.28204	-0.01412	0.08109	0.19515
2702	22.508	0.2046	-0.01003	0.19825	0.14663	-0.08174	0.2636	0.1956	-0.11978	0.1857	-0.0067	-0.23659	0.28209	-0.01409	0.08109	0.1952
2703	22.517	0.20467	-0.01003	0.19823	0.14667	-0.08175	0.26365	0.19563	-0.11979	0.18574	-0.00667	-0.2366	0.28214	-0.01406	0.08109	0.19524
2704	22.525	0.20469	-0.01006	0.19829	0.14671	-0.08176	0.2637	0.19566	-0.1198	0.18578	-0.00664	-0.2366	0.28219	-0.01403	0.08109	0.19529
2705	22.533	0.20472	-0.01009	0.19835	0.14674	-0.08177	0.26375	0.19569	-0.11981	0.18582	-0.00662	-0.2366	0.28224	-0.014	0.08108	0.19533
2706	22.542	0.20474	-0.01012	0.19841	0.14677	-0.08178	0.26381	0.19571	-0.11982	0.18586	-0.00659	-0.23661	0.28229	-0.01397	0.08108	0.19538
2707	22.55	0.20476	-0.01015	0.19847	0.1468	-0.08179	0.26386	0.19573	-0.11983	0.18589	-0.00657	-0.23661	0.28233	-0.01393	0.08108	0.19544
2708	22.558	0.20478	-0.01019	0.19853	0.14683	-0.08179	0.26391	0.19574	-0.11984	0.18593	-0.00654	-0.23661	0.28238	-0.0139	0.08108	0.19549
2709	22.567	0.20479	-0.01022	0.19859	0.14686	-0.0818	0.26396	0.19575	-0.11985	0.18597	-0.00652	-0.23662	0.28242	-0.01387	0.08108	0.19555
2710	22.575	0.20481	-0.01025	0.19864	0.14688	-0.08181	0.26401	0.19576	-0.11986	0.186	-0.0065	-0.23663	0.28246	-0.01385	0.08107	0.1956
2711	22.583	0.20482	-0.01028	0.1987	0.1469	-0.08182	0.26406	0.19577	-0.11986	0.18604	-0.00649	-0.23663	0.2825	-0.01383	0.08106	0.19565
2712	22.592	0.20482	-0.01031	0.19876	0.14691	-0.08183	0.26411	0.19578	-0.11987	0.18608	-0.00648	-0.23664	0.28253	-0.01382	0.08105	0.19569
2713	22.6	0.20483	-0.01034	0.19882	0.14693	-0.08183	0.26416	0.19578	-0.11987	0.18611	-0.00647	-0.23666	0.28257	-0.01382	0.08104	0.19573
2714	22.608	0.20483	-0.01036	0.19888	0.14694	-0.08184	0.26421	0.19579	-0.11988	0.18615	-0.00646	-0.23667	0.2826	-0.01381	0.08103	0.19577
2715	22.617	0.20483	-0.0104	0.19893	0.14695	-0.08185	0.26426	0.19579	-0.11989	0.18619	-0.00645	-0.23668	0.28264	-0.0138	0.08102	0.19582
2716	22.625	0.20484	-0.01043	0.19899	0.14696	-0.08186	0.26431	0.19579	-0.11989	0.18623	-0.00644	-0.23669	0.28268	-0.01378	0.08101	0.19587
2717	22.633	0.20483	-0.01046	0.19905	0.14696	-0.08188	0.26436	0.19579	-0.1199	0.18627	-0.00644	-0.2367	0.28271	-0.01377	0.081	0.19593
2718	22.642	0.20483	-0.01049	0.19911	0.14697	-0.08189	0.26441	0.19579	-0.11991	0.18632	-0.00643	-0.23671	0.28275	-0.01376	0.08099	0.19599
